<svg id="visual" viewBox="0 0 960 540" width="960" height="540" xmlns="http://www.w3.org/2000/svg" xmlns:xlink="http://www.w3.org/1999/xlink" version="1.1"><rect x="0" y="0" width="960" height="540" fill="#0B4619"></rect><path d="M0 392L11.5 401.2C23 410.3 46 428.7 68.8 424.8C91.7 421 114.3 395 137.2 387.8C160 380.7 183 392.3 205.8 390.2C228.7 388 251.3 372 274.2 373.8C297 375.7 320 395.3 342.8 408.3C365.7 421.3 388.3 427.7 411.2 422C434 416.3 457 398.7 480 395C503 391.3 526 401.7 548.8 412.3C571.7 423 594.3 434 617.2 433C640 432 663 419 685.8 408.8C708.7 398.7 731.3 391.3 754.2 388.2C777 385 800 386 822.8 386.2C845.7 386.3 868.3 385.7 891.2 383.5C914 381.3 937 377.7 948.5 375.8L960 374L960 541L948.5 541C937 541 914 541 891.2 541C868.3 541 845.7 541 822.8 541C800 541 777 541 754.2 541C731.3 541 708.7 541 685.8 541C663 541 640 541 617.2 541C594.3 541 571.7 541 548.8 541C526 541 503 541 480 541C457 541 434 541 411.2 541C388.3 541 365.7 541 342.8 541C320 541 297 541 274.2 541C251.3 541 228.7 541 205.8 541C183 541 160 541 137.2 541C114.3 541 91.7 541 68.8 541C46 541 23 541 11.5 541L0 541Z" fill="#ffffff" stroke-linecap="round" stroke-linejoin="miter"></path></svg>