<svg id="visual" viewBox="0 0 900 600" width="900" height="600" xmlns="http://www.w3.org/2000/svg" xmlns:xlink="http://www.w3.org/1999/xlink" version="1.1"><rect x="0" y="0" width="900" height="600" fill="#ffffff"></rect><path d="M0 235L21.5 265.2C43 295.3 86 355.7 128.8 371.5C171.7 387.3 214.3 358.7 257.2 341C300 323.3 343 316.7 385.8 306.5C428.7 296.3 471.3 282.7 514.2 308.3C557 334 600 399 642.8 429.8C685.7 460.7 728.3 457.3 771.2 412.5C814 367.7 857 281.3 878.5 238.2L900 195L900 601L878.5 601C857 601 814 601 771.2 601C728.3 601 685.7 601 642.8 601C600 601 557 601 514.2 601C471.3 601 428.7 601 385.8 601C343 601 300 601 257.2 601C214.3 601 171.7 601 128.8 601C86 601 43 601 21.5 601L0 601Z" fill="#0B4619" stroke-linecap="round" stroke-linejoin="miter"></path></svg>